<?xml version="1.0" encoding="utf-8"?>
<!-- Generator: Adobe Illustrator 25.4.1, SVG Export Plug-In . SVG Version: 6.00 Build 0)  -->
<svg version="1.1" id="Слой_1" xmlns="http://www.w3.org/2000/svg" xmlns:xlink="http://www.w3.org/1999/xlink" x="0px" y="0px"
	 viewBox="0 0 255.9 256" style="enable-background:new 0 0 255.9 256;" xml:space="preserve">
<style type="text/css">
	.st0{fill:#0F2925;}
</style>
<g>
	<path class="st0" d="M101.9,230.9L15,255.4c-4.6,1.2-8.6,0.2-12-3.2c-2.9-2.9-3.7-6.6-2.4-11.2l24.7-86.7c1.7-5.6,5.4-7.7,11.2-6.3
		c5.7,1.8,7.7,5.6,6.1,11.4l-21.7,75.6l76.4-21.4c5.8-1.4,9.5,0.7,11,6.2C109.8,225.4,107.7,229.2,101.9,230.9z"/>
	<path class="st0" d="M203.6,237.5c-2.7,2.7-5.6,3.9-8.6,3.5c-3-0.4-5.5-2.3-7.5-5.7L72.1,39.9c-2.7-4.9-2.2-9.1,1.3-12.6
		c2.8-2.8,5.7-4,8.7-3.6c3,0.4,5.5,2.4,7.5,5.9l115.5,195.3C207.8,229.6,207.3,233.8,203.6,237.5z"/>
	<path class="st0" d="M255.4,15l-24.5,86.9c-1.8,5.8-5.5,7.9-11.1,6.2c-5.5-1.5-7.6-5.2-6.1-11L235,20.8l-75.7,21.8
		c-5.8,1.5-9.5-0.6-11.3-6.2c-1.4-5.7,0.6-9.4,6.2-11.1L241,0.6c4.6-1.2,8.3-0.4,11.2,2.4C255.6,6.4,256.6,10.4,255.4,15z"/>
</g>
</svg>
